<svg width="1000" height="1000" viewBox="0 0 1000 1000" fill="none" xmlns="http://www.w3.org/2000/svg">
<g clip-path="url(#clip0_2_2)">
<rect width="1000" height="1000" fill="black"/>
<path d="M418.2 591.8V803H312.6V243H531.8C560.6 243 585.667 247.8 607 257.4C628.333 266.467 645.933 278.733 659.8 294.2C674.2 309.133 684.867 326.467 691.8 346.2C699.267 365.4 703 385.133 703 405.4V424.6C703 445.4 699.267 465.933 691.8 486.2C684.867 505.933 674.2 523.8 659.8 539.8C645.933 555.267 628.333 567.8 607 577.4C585.667 587 560.6 591.8 531.8 591.8H418.2ZM418.2 491H521.4C544.867 491 563.267 484.6 576.6 471.8C590.467 459 597.4 442.467 597.4 422.2V412.6C597.4 392.333 590.467 375.8 576.6 363C563.267 350.2 544.867 343.8 521.4 343.8H418.2V491Z" fill="white"/>
</g>
<defs>
<clipPath id="clip0_2_2">
<rect width="1000" height="1000" fill="white"/>
</clipPath>
</defs>
</svg>
