<svg width="216" height="45" viewBox="0 0 216 45" fill="none" xmlns="http://www.w3.org/2000/svg">
<rect width="216" height="45" fill="white"/>
<rect x="12.5" y="8.5" width="19" height="19" fill="white" stroke="black"/>
<rect x="31.5" y="8.5" width="19" height="19" fill="white" stroke="black"/>
<rect x="50.5" y="8.5" width="19" height="19" fill="white" stroke="black"/>
<rect x="69.5" y="8.5" width="19" height="19" fill="white" stroke="black"/>
<rect x="88.5" y="8.5" width="19" height="19" fill="white" stroke="black"/>
<rect x="107.5" y="8.5" width="19" height="19" fill="white" stroke="black"/>
<rect x="126.5" y="8.5" width="19" height="19" fill="#D09CFA" stroke="black"/>
<rect x="145.5" y="8.5" width="19" height="19" fill="white" stroke="black"/>
<rect x="164.5" y="8.5" width="19" height="19" fill="white" stroke="black"/>
<rect x="183.5" y="8.5" width="19" height="19" fill="white" stroke="black"/>
<path d="M20.9902 34.8C20.9902 34.528 21.0902 34.292 21.2902 34.092C21.4902 33.892 21.7262 33.792 21.9982 33.792C22.2702 33.792 22.5062 33.892 22.7062 34.092C22.9062 34.292 23.0062 34.528 23.0062 34.8C23.0062 35.072 22.9062 35.308 22.7062 35.508C22.5062 35.708 22.2702 35.808 21.9982 35.808C21.7262 35.808 21.4902 35.708 21.2902 35.508C21.0902 35.308 20.9902 35.072 20.9902 34.8ZM18.9022 33.864C18.9022 32.776 19.1742 31.932 19.7182 31.332C20.2702 30.732 21.0302 30.432 21.9982 30.432C22.9662 30.432 23.7222 30.732 24.2662 31.332C24.8182 31.932 25.0942 32.776 25.0942 33.864V35.736C25.0942 36.856 24.8182 37.708 24.2662 38.292C23.7222 38.876 22.9662 39.168 21.9982 39.168C21.0302 39.168 20.2702 38.876 19.7182 38.292C19.1742 37.708 18.9022 36.856 18.9022 35.736V33.864ZM21.9982 37.728C22.2862 37.728 22.5262 37.684 22.7182 37.596C22.9102 37.5 23.0662 37.368 23.1862 37.2C23.3062 37.032 23.3902 36.832 23.4382 36.6C23.4862 36.368 23.5102 36.112 23.5102 35.832V33.768C23.5102 33.504 23.4822 33.256 23.4262 33.024C23.3702 32.792 23.2822 32.592 23.1622 32.424C23.0422 32.256 22.8862 32.124 22.6942 32.028C22.5022 31.924 22.2702 31.872 21.9982 31.872C21.7262 31.872 21.4942 31.924 21.3022 32.028C21.1102 32.124 20.9542 32.256 20.8342 32.424C20.7142 32.592 20.6262 32.792 20.5702 33.024C20.5142 33.256 20.4862 33.504 20.4862 33.768V35.832C20.4862 36.112 20.5102 36.368 20.5582 36.6C20.6062 36.832 20.6902 37.032 20.8102 37.2C20.9302 37.368 21.0862 37.5 21.2782 37.596C21.4702 37.684 21.7102 37.728 21.9982 37.728Z" fill="black"/>
<path d="M40.4942 37.488V31.392H40.2782L39.4862 34.272H37.9742V34.128L38.9822 30.6H42.0782V37.488H44.1662V39H38.1182V37.488H40.4942Z" fill="black"/>
<path d="M63.0102 37.488V39H57.1062V37.344C57.1062 36.904 57.1702 36.528 57.2982 36.216C57.4342 35.904 57.6222 35.64 57.8622 35.424C58.1102 35.208 58.4062 35.032 58.7502 34.896C59.0942 34.752 59.4822 34.632 59.9142 34.536C60.2342 34.464 60.4942 34.384 60.6942 34.296C60.9022 34.2 61.0662 34.096 61.1862 33.984C61.3062 33.864 61.3862 33.736 61.4262 33.6C61.4742 33.456 61.4982 33.296 61.4982 33.12C61.4982 32.784 61.3742 32.504 61.1262 32.28C60.8862 32.056 60.5502 31.944 60.1182 31.944C59.6622 31.944 59.2982 32.084 59.0262 32.364C58.7542 32.636 58.6182 33.016 58.6182 33.504V34.032H57.0342V33.36C57.0342 32.968 57.1022 32.596 57.2382 32.244C57.3822 31.884 57.5822 31.572 57.8382 31.308C58.1022 31.036 58.4222 30.824 58.7982 30.672C59.1742 30.512 59.5982 30.432 60.0702 30.432C60.5742 30.432 61.0142 30.508 61.3902 30.66C61.7662 30.804 62.0782 30.996 62.3262 31.236C62.5822 31.476 62.7702 31.756 62.8902 32.076C63.0182 32.388 63.0822 32.712 63.0822 33.048V33.192C63.0822 33.896 62.8822 34.48 62.4822 34.944C62.0902 35.408 61.4462 35.744 60.5502 35.952C60.1742 36.04 59.8622 36.132 59.6142 36.228C59.3742 36.316 59.1862 36.416 59.0502 36.528C58.9142 36.64 58.8182 36.764 58.7622 36.9C58.7142 37.028 58.6902 37.176 58.6902 37.344V37.488H63.0102Z" fill="black"/>
<path d="M78.1822 35.4V32.904L80.2702 32.328V32.112H76.0942V30.6H81.5662V33.24L79.3342 33.888V34.104H79.6222C79.9182 34.104 80.2102 34.152 80.4982 34.248C80.7862 34.336 81.0382 34.476 81.2542 34.668C81.4782 34.86 81.6582 35.1 81.7942 35.388C81.9302 35.668 81.9982 36 81.9982 36.384V36.528C81.9982 36.904 81.9342 37.252 81.8062 37.572C81.6862 37.892 81.5022 38.172 81.2542 38.412C81.0142 38.644 80.7142 38.828 80.3542 38.964C79.9942 39.1 79.5822 39.168 79.1182 39.168C78.6462 39.168 78.2182 39.092 77.8342 38.94C77.4502 38.788 77.1222 38.58 76.8502 38.316C76.5862 38.052 76.3822 37.748 76.2382 37.404C76.0942 37.06 76.0222 36.696 76.0222 36.312V35.808H77.6062V36.24C77.6062 36.624 77.7302 36.956 77.9782 37.236C78.2262 37.516 78.5982 37.656 79.0942 37.656C79.5182 37.656 79.8422 37.548 80.0662 37.332C80.2982 37.116 80.4142 36.832 80.4142 36.48C80.4142 36.104 80.2902 35.832 80.0422 35.664C79.8022 35.488 79.4942 35.4 79.1182 35.4H78.1822Z" fill="black"/>
<path d="M97.1102 30.6H100.11V35.904H101.334V37.416H100.11V39H98.5262V37.416H94.7822V35.232L97.1102 30.6ZM96.1502 35.688V35.904H98.5262V31.392H98.3102L96.1502 35.688Z" fill="black"/>
<path d="M114.118 35.256V30.6H119.734V32.112H115.702V34.392H115.918C116.03 34.08 116.238 33.812 116.542 33.588C116.854 33.356 117.27 33.24 117.79 33.24C118.182 33.24 118.534 33.308 118.846 33.444C119.158 33.58 119.422 33.768 119.638 34.008C119.854 34.248 120.018 34.536 120.13 34.872C120.25 35.208 120.31 35.576 120.31 35.976V36.048C120.31 36.472 120.238 36.872 120.094 37.248C119.958 37.624 119.754 37.956 119.482 38.244C119.218 38.524 118.89 38.748 118.498 38.916C118.106 39.084 117.654 39.168 117.142 39.168C116.63 39.168 116.178 39.1 115.786 38.964C115.394 38.82 115.062 38.624 114.79 38.376C114.526 38.12 114.322 37.82 114.178 37.476C114.042 37.124 113.974 36.744 113.974 36.336V36.048H115.558V36.192C115.558 36.616 115.686 36.968 115.942 37.248C116.206 37.52 116.59 37.656 117.094 37.656C117.598 37.656 117.994 37.52 118.282 37.248C118.578 36.976 118.726 36.6 118.726 36.12C118.726 35.664 118.618 35.324 118.402 35.1C118.186 34.868 117.902 34.752 117.55 34.752C117.318 34.752 117.13 34.804 116.986 34.908C116.842 35.004 116.75 35.12 116.71 35.256H114.118Z" fill="black"/>
<path d="M137.258 32.976C137.258 32.696 137.154 32.456 136.946 32.256C136.746 32.048 136.43 31.944 135.998 31.944C135.566 31.944 135.222 32.072 134.966 32.328C134.718 32.576 134.594 32.904 134.594 33.312V34.392H134.81C134.946 34.112 135.166 33.888 135.47 33.72C135.774 33.544 136.118 33.456 136.502 33.456C136.846 33.456 137.17 33.52 137.474 33.648C137.778 33.768 138.042 33.944 138.266 34.176C138.49 34.4 138.666 34.676 138.794 35.004C138.922 35.332 138.986 35.704 138.986 36.12V36.264C138.986 36.688 138.914 37.08 138.77 37.44C138.634 37.792 138.434 38.096 138.17 38.352C137.914 38.608 137.602 38.808 137.234 38.952C136.866 39.096 136.454 39.168 135.998 39.168C135.582 39.168 135.19 39.1 134.822 38.964C134.462 38.828 134.146 38.64 133.874 38.4C133.61 38.152 133.398 37.86 133.238 37.524C133.086 37.18 133.01 36.804 133.01 36.396V33.336C133.01 32.896 133.09 32.496 133.25 32.136C133.41 31.776 133.626 31.472 133.898 31.224C134.17 30.968 134.482 30.772 134.834 30.636C135.194 30.5 135.574 30.432 135.974 30.432C136.374 30.432 136.746 30.492 137.09 30.612C137.442 30.724 137.746 30.892 138.002 31.116C138.266 31.332 138.47 31.6 138.614 31.92C138.766 32.232 138.842 32.584 138.842 32.976H137.258ZM135.998 37.656C136.406 37.656 136.742 37.536 137.006 37.296C137.27 37.048 137.402 36.72 137.402 36.312C137.402 35.904 137.27 35.58 137.006 35.34C136.742 35.092 136.406 34.968 135.998 34.968C135.59 34.968 135.254 35.092 134.99 35.34C134.726 35.58 134.594 35.904 134.594 36.312C134.594 36.72 134.726 37.048 134.99 37.296C135.254 37.536 135.59 37.656 135.998 37.656Z" fill="black"/>
<path d="M152.046 30.6H157.95V33.072L154.914 37.512C154.754 37.752 154.626 37.96 154.53 38.136C154.442 38.304 154.398 38.496 154.398 38.712V39H152.694V38.64C152.694 38.48 152.706 38.336 152.73 38.208C152.754 38.08 152.79 37.952 152.838 37.824C152.894 37.696 152.966 37.56 153.054 37.416C153.142 37.272 153.25 37.104 153.378 36.912L156.51 32.328V32.112H152.046V30.6Z" fill="black"/>
<path d="M173.998 39.168C173.526 39.168 173.102 39.112 172.726 39C172.35 38.88 172.03 38.716 171.766 38.508C171.502 38.3 171.298 38.056 171.154 37.776C171.01 37.488 170.938 37.168 170.938 36.816V36.744C170.938 36.448 170.978 36.188 171.058 35.964C171.146 35.74 171.258 35.548 171.394 35.388C171.538 35.228 171.698 35.096 171.874 34.992C172.05 34.888 172.234 34.808 172.426 34.752V34.536C172.258 34.472 172.094 34.388 171.934 34.284C171.782 34.18 171.646 34.056 171.526 33.912C171.414 33.76 171.322 33.584 171.25 33.384C171.186 33.176 171.154 32.944 171.154 32.688V32.616C171.154 32.272 171.234 31.964 171.394 31.692C171.554 31.42 171.766 31.192 172.03 31.008C172.294 30.816 172.594 30.672 172.93 30.576C173.274 30.48 173.63 30.432 173.998 30.432C174.366 30.432 174.718 30.48 175.054 30.576C175.398 30.672 175.702 30.816 175.966 31.008C176.23 31.192 176.442 31.42 176.602 31.692C176.762 31.964 176.842 32.272 176.842 32.616V32.688C176.842 32.944 176.806 33.176 176.734 33.384C176.67 33.584 176.578 33.76 176.458 33.912C176.346 34.056 176.21 34.18 176.05 34.284C175.898 34.388 175.738 34.472 175.57 34.536V34.752C175.762 34.808 175.946 34.888 176.122 34.992C176.298 35.096 176.454 35.228 176.59 35.388C176.734 35.548 176.846 35.74 176.926 35.964C177.014 36.188 177.058 36.448 177.058 36.744V36.816C177.058 37.168 176.986 37.488 176.842 37.776C176.698 38.064 176.494 38.312 176.23 38.52C175.966 38.72 175.642 38.88 175.258 39C174.882 39.112 174.462 39.168 173.998 39.168ZM173.998 37.656C174.47 37.656 174.834 37.552 175.09 37.344C175.346 37.128 175.474 36.856 175.474 36.528C175.474 36.2 175.346 35.932 175.09 35.724C174.834 35.508 174.47 35.4 173.998 35.4C173.526 35.4 173.162 35.508 172.906 35.724C172.65 35.932 172.522 36.2 172.522 36.528C172.522 36.856 172.65 37.128 172.906 37.344C173.162 37.552 173.526 37.656 173.998 37.656ZM173.998 31.944C173.638 31.944 173.338 32.036 173.098 32.22C172.858 32.404 172.738 32.636 172.738 32.916C172.738 33.196 172.858 33.428 173.098 33.612C173.338 33.796 173.638 33.888 173.998 33.888C174.358 33.888 174.658 33.796 174.898 33.612C175.138 33.428 175.258 33.196 175.258 32.916C175.258 32.636 175.138 32.404 174.898 32.22C174.658 32.036 174.358 31.944 173.998 31.944Z" fill="black"/>
<path d="M191.738 36.624C191.738 36.904 191.838 37.148 192.038 37.356C192.246 37.556 192.566 37.656 192.998 37.656C193.43 37.656 193.77 37.532 194.018 37.284C194.274 37.028 194.402 36.696 194.402 36.288V35.208H194.186C194.074 35.488 193.89 35.716 193.634 35.892C193.378 36.06 193.014 36.144 192.542 36.144C192.182 36.144 191.846 36.08 191.534 35.952C191.23 35.816 190.962 35.628 190.73 35.388C190.506 35.148 190.33 34.86 190.202 34.524C190.074 34.188 190.01 33.816 190.01 33.408V33.264C190.01 32.864 190.082 32.492 190.226 32.148C190.37 31.796 190.57 31.496 190.826 31.248C191.09 30.992 191.406 30.792 191.774 30.648C192.15 30.504 192.566 30.432 193.022 30.432C193.438 30.432 193.826 30.5 194.186 30.636C194.554 30.772 194.87 30.964 195.134 31.212C195.398 31.452 195.606 31.744 195.758 32.088C195.91 32.424 195.986 32.796 195.986 33.204V36.264C195.986 36.72 195.91 37.128 195.758 37.488C195.606 37.848 195.398 38.152 195.134 38.4C194.87 38.648 194.558 38.84 194.198 38.976C193.846 39.104 193.462 39.168 193.046 39.168C192.638 39.168 192.258 39.112 191.906 39C191.554 38.88 191.246 38.712 190.982 38.496C190.726 38.272 190.522 38.004 190.37 37.692C190.226 37.38 190.154 37.024 190.154 36.624H191.738ZM192.998 31.944C192.59 31.944 192.254 32.068 191.99 32.316C191.726 32.556 191.594 32.88 191.594 33.288C191.594 33.696 191.726 34.024 191.99 34.272C192.254 34.512 192.59 34.632 192.998 34.632C193.406 34.632 193.742 34.512 194.006 34.272C194.27 34.024 194.402 33.696 194.402 33.288C194.402 32.88 194.27 32.556 194.006 32.316C193.742 32.068 193.406 31.944 192.998 31.944Z" fill="black"/>
</svg>
