<svg width="181" height="159" viewBox="0 0 181 159" fill="none" xmlns="http://www.w3.org/2000/svg">
<circle cx="86.5147" cy="11.6912" r="11.1912" fill="white" stroke="black"/>
<path d="M87.2117 11.5365H85.5457L85.3077 12.5865H84.3417L85.5107 7.68655H87.2467L88.4157 12.5865H87.4497L87.2117 11.5365ZM85.7417 10.6545H87.0087L86.4417 8.14855H86.3157L85.7417 10.6545Z" fill="black"/>
<circle cx="49.1029" cy="53.7794" r="11.1912" fill="white" stroke="black"/>
<circle cx="74.8236" cy="102.882" r="11.1912" fill="#D09CFA" stroke="black"/>
<circle cx="56.1177" cy="147.309" r="11.1912" fill="white" stroke="black"/>
<path d="M56.7892 45.6453C56.8167 45.9201 57.0617 46.1206 57.3365 46.0931L61.8142 45.6453C62.0889 45.6179 62.2894 45.3728 62.2619 45.0981C62.2345 44.8233 61.9894 44.6228 61.7147 44.6503L57.7345 45.0483L57.3365 41.0682C57.309 40.7934 57.064 40.5929 56.7892 40.6204C56.5145 40.6479 56.314 40.8929 56.3415 41.1677L56.7892 45.6453ZM77.9439 19.5584L56.8998 45.279L57.6737 45.9122L78.7179 20.1916L77.9439 19.5584Z" fill="black"/>
<path d="M18.2101 93.5941C18.2458 93.8679 18.4968 94.0609 18.7706 94.0252L23.2328 93.4432C23.5066 93.4074 23.6996 93.1565 23.6639 92.8827C23.6282 92.6089 23.3773 92.4158 23.1034 92.4516L19.137 92.9689L18.6197 89.0025C18.584 88.7287 18.333 88.5357 18.0592 88.5714C17.7854 88.6071 17.5924 88.858 17.6281 89.1319L18.2101 93.5941ZM41.6919 62.8275L18.3096 93.2245L19.1022 93.8342L42.4846 63.4372L41.6919 62.8275Z" fill="black"/>
<path d="M69.9889 91.6655C70.2509 91.7528 70.534 91.6112 70.6214 91.3493L72.0444 87.0802C72.1317 86.8182 71.9901 86.5351 71.7282 86.4477C71.4662 86.3604 71.183 86.502 71.0957 86.764L69.8308 90.5587L66.0361 89.2938C65.7741 89.2065 65.4909 89.348 65.4036 89.61C65.3163 89.872 65.4579 90.1551 65.7198 90.2425L69.9889 91.6655ZM55.6704 63.3559L69.6998 91.4148L70.5942 90.9675L56.5648 62.9087L55.6704 63.3559Z" fill="black"/>
<path d="M119.226 44.926C119.502 44.9391 119.736 44.7261 119.749 44.4503L119.963 39.9554C119.977 39.6796 119.764 39.4453 119.488 39.4322C119.212 39.419 118.978 39.632 118.965 39.9078L118.774 43.9033L114.779 43.713C114.503 43.6999 114.269 43.9129 114.256 44.1887C114.242 44.4645 114.455 44.6988 114.731 44.7119L119.226 44.926ZM95.4976 19.0423L118.88 44.7629L119.62 44.0902L96.2376 18.3696L95.4976 19.0423Z" fill="black"/>
<path d="M161.297 91.6894C161.572 91.7123 161.814 91.5078 161.836 91.2326L162.21 86.7482C162.233 86.473 162.029 86.2313 161.753 86.2084C161.478 86.1855 161.237 86.39 161.214 86.6651L160.881 90.6513L156.895 90.3191C156.62 90.2962 156.378 90.5007 156.355 90.7759C156.333 91.0511 156.537 91.2928 156.812 91.3157L161.297 91.6894ZM135.236 61.117L160.957 91.5141L161.72 90.8682L135.999 60.4711L135.236 61.117Z" fill="black"/>
<path d="M57.9597 135.68C57.994 135.954 58.2439 136.148 58.5179 136.114L62.9831 135.556C63.2571 135.521 63.4515 135.271 63.4173 134.997C63.383 134.723 63.1331 134.529 62.8591 134.563L58.89 135.059L58.3939 131.09C58.3596 130.816 58.1097 130.622 57.8357 130.656C57.5617 130.69 57.3673 130.94 57.4016 131.214L57.9597 135.68ZM74.4288 114.267L58.0612 135.311L58.8505 135.925L75.2182 114.88L74.4288 114.267Z" fill="black"/>
<circle cx="11.6912" cy="102.882" r="11.1912" fill="white" stroke="black"/>
<circle cx="126.265" cy="53.7794" r="11.1912" fill="white" stroke="black"/>
<circle cx="168.353" cy="100.544" r="11.1912" fill="white" stroke="black"/>
<path d="M47.001 55.118H47.463V51.982H47.001V51.1H49.15C49.3834 51.1 49.5887 51.1327 49.766 51.198C49.948 51.2633 50.0997 51.352 50.221 51.464C50.347 51.576 50.4404 51.7113 50.501 51.87C50.5664 52.024 50.599 52.192 50.599 52.374V52.458C50.599 52.738 50.5197 52.962 50.361 53.13C50.207 53.298 50.011 53.4147 49.773 53.48V53.606C50.011 53.6713 50.207 53.7903 50.361 53.963C50.5197 54.131 50.599 54.355 50.599 54.635V54.719C50.599 54.901 50.5664 55.0713 50.501 55.23C50.4404 55.384 50.347 55.5193 50.221 55.636C50.0997 55.748 49.948 55.8367 49.766 55.902C49.5887 55.9673 49.3834 56 49.15 56H47.001V55.118ZM48.387 55.118H49.059C49.255 55.118 49.4137 55.076 49.535 54.992C49.6564 54.908 49.717 54.768 49.717 54.572V54.53C49.717 54.334 49.6564 54.194 49.535 54.11C49.4137 54.026 49.255 53.984 49.059 53.984H48.387V55.118ZM48.387 53.102H49.059C49.255 53.102 49.4137 53.0623 49.535 52.983C49.6564 52.899 49.717 52.759 49.717 52.563V52.521C49.717 52.325 49.6564 52.1873 49.535 52.108C49.4137 52.024 49.255 51.982 49.059 51.982H48.387V53.102Z" fill="black"/>
<path d="M125.835 55.258C126.012 55.258 126.157 55.2323 126.269 55.181C126.386 55.125 126.474 55.0527 126.535 54.964C126.6 54.8707 126.645 54.7657 126.668 54.649C126.691 54.5277 126.703 54.404 126.703 54.278V54.152H127.627V54.278C127.627 54.8613 127.473 55.3117 127.165 55.629C126.862 55.9417 126.418 56.098 125.835 56.098C125.275 56.098 124.832 55.9277 124.505 55.587C124.178 55.2463 124.015 54.7493 124.015 54.096V53.004C124.015 52.6913 124.057 52.4113 124.141 52.164C124.225 51.912 124.346 51.702 124.505 51.534C124.664 51.3613 124.855 51.2307 125.079 51.142C125.303 51.0487 125.555 51.002 125.835 51.002C126.124 51.002 126.381 51.044 126.605 51.128C126.829 51.212 127.016 51.3333 127.165 51.492C127.319 51.6507 127.433 51.842 127.508 52.066C127.587 52.29 127.627 52.542 127.627 52.822V52.948H126.703V52.822C126.703 52.7053 126.689 52.5887 126.661 52.472C126.633 52.3553 126.586 52.2503 126.521 52.157C126.456 52.0637 126.367 51.989 126.255 51.933C126.143 51.8723 126.003 51.842 125.835 51.842C125.681 51.842 125.548 51.8723 125.436 51.933C125.324 51.989 125.231 52.0683 125.156 52.171C125.081 52.269 125.025 52.3857 124.988 52.521C124.955 52.6517 124.939 52.7893 124.939 52.934V54.166C124.939 54.3247 124.955 54.4717 124.988 54.607C125.021 54.7377 125.072 54.852 125.142 54.95C125.212 55.048 125.303 55.125 125.415 55.181C125.532 55.2323 125.672 55.258 125.835 55.258Z" fill="black"/>
<path d="M10.001 100.1H11.779C12.3857 100.1 12.836 100.242 13.13 100.527C13.424 100.807 13.571 101.243 13.571 101.836V103.264C13.571 103.857 13.424 104.295 13.13 104.58C12.836 104.86 12.3857 105 11.779 105H10.001V104.111H10.463V100.982H10.001V100.1ZM11.779 104.118C12.101 104.118 12.325 104.043 12.451 103.894C12.5817 103.74 12.647 103.502 12.647 103.18V101.836C12.647 101.556 12.5817 101.344 12.451 101.199C12.325 101.054 12.101 100.982 11.779 100.982H11.387V104.118H11.779Z" fill="black"/>
<path d="M73.253 100.1H76.347V100.982H74.177V102.102H76.263V102.984H74.177V104.118H76.431V105H73.253V100.1Z" fill="black"/>
<path d="M166.295 98.1H169.431V98.982H167.219V100.102H169.389V100.984H167.219V103H166.295V98.1Z" fill="black"/>
<path d="M55.499 147.522H57.599V150H56.759V149.454H56.633C56.577 149.636 56.4697 149.79 56.311 149.916C56.1524 150.037 55.9144 150.098 55.597 150.098C55.373 150.098 55.163 150.056 54.967 149.972C54.771 149.888 54.6007 149.764 54.456 149.601C54.3114 149.433 54.197 149.228 54.113 148.985C54.029 148.738 53.987 148.451 53.987 148.124V146.976C53.987 146.659 54.0314 146.379 54.12 146.136C54.2134 145.889 54.3394 145.681 54.498 145.513C54.6614 145.345 54.855 145.219 55.079 145.135C55.303 145.046 55.5504 145.002 55.821 145.002C56.101 145.002 56.3507 145.049 56.57 145.142C56.7894 145.231 56.976 145.357 57.13 145.52C57.284 145.679 57.4007 145.868 57.48 146.087C57.5594 146.302 57.599 146.533 57.599 146.78V146.864H56.675V146.78C56.675 146.486 56.598 146.264 56.444 146.115C56.2947 145.961 56.0824 145.884 55.807 145.884C55.5457 145.884 55.331 145.973 55.163 146.15C54.995 146.323 54.911 146.621 54.911 147.046V148.082C54.911 148.838 55.219 149.216 55.835 149.216C56.1104 149.216 56.318 149.144 56.458 148.999C56.6027 148.85 56.675 148.651 56.675 148.404H55.499V147.522Z" fill="black"/>
</svg>
