<svg width="278" height="50" viewBox="0 0 278 50" fill="none" xmlns="http://www.w3.org/2000/svg">
<rect width="278" height="50" fill="white"/>
<rect x="15.5" y="15.5" width="34" height="19" fill="#D09CFA" stroke="black"/>
<rect x="50.5" y="15.5" width="14" height="19" fill="white" stroke="black"/>
<path d="M33.4262 28.2H30.5702L30.1622 30H28.5062L30.5102 21.6H33.4862L35.4902 30H33.8342L33.4262 28.2ZM30.9062 26.688H33.0782L32.1062 22.392H31.8902L30.9062 26.688Z" fill="black"/>
<path d="M87.3536 25.3536C87.5488 25.1583 87.5488 24.8417 87.3536 24.6464L84.1716 21.4645C83.9763 21.2692 83.6597 21.2692 83.4645 21.4645C83.2692 21.6597 83.2692 21.9763 83.4645 22.1716L86.2929 25L83.4645 27.8284C83.2692 28.0237 83.2692 28.3403 83.4645 28.5355C83.6597 28.7308 83.9763 28.7308 84.1716 28.5355L87.3536 25.3536ZM65 25.5L87 25.5V24.5L65 24.5V25.5Z" fill="black"/>
<rect x="87.5" y="15.5" width="34" height="19" fill="white" stroke="black"/>
<rect x="122.5" y="15.5" width="14" height="19" fill="white" stroke="black"/>
<path d="M100.878 28.488H101.67V23.112H100.878V21.6H104.562C104.962 21.6 105.314 21.656 105.618 21.768C105.93 21.88 106.19 22.032 106.398 22.224C106.614 22.416 106.774 22.648 106.878 22.92C106.99 23.184 107.046 23.472 107.046 23.784V23.928C107.046 24.408 106.91 24.792 106.638 25.08C106.374 25.368 106.038 25.568 105.63 25.68V25.896C106.038 26.008 106.374 26.212 106.638 26.508C106.91 26.796 107.046 27.18 107.046 27.66V27.804C107.046 28.116 106.99 28.408 106.878 28.68C106.774 28.944 106.614 29.176 106.398 29.376C106.19 29.568 105.93 29.72 105.618 29.832C105.314 29.944 104.962 30 104.562 30H100.878V28.488ZM103.254 28.488H104.406C104.742 28.488 105.014 28.416 105.222 28.272C105.43 28.128 105.534 27.888 105.534 27.552V27.48C105.534 27.144 105.43 26.904 105.222 26.76C105.014 26.616 104.742 26.544 104.406 26.544H103.254V28.488ZM103.254 25.032H104.406C104.742 25.032 105.014 24.964 105.222 24.828C105.43 24.684 105.534 24.444 105.534 24.108V24.036C105.534 23.7 105.43 23.464 105.222 23.328C105.014 23.184 104.742 23.112 104.406 23.112H103.254V25.032Z" fill="black"/>
<path d="M159.354 25.3536C159.549 25.1583 159.549 24.8417 159.354 24.6464L156.172 21.4645C155.976 21.2692 155.66 21.2692 155.464 21.4645C155.269 21.6597 155.269 21.9763 155.464 22.1716L158.293 25L155.464 27.8284C155.269 28.0237 155.269 28.3403 155.464 28.5355C155.66 28.7308 155.976 28.7308 156.172 28.5355L159.354 25.3536ZM137 25.5L159 25.5V24.5L137 24.5V25.5Z" fill="black"/>
<rect x="159.5" y="15.5" width="34" height="19" fill="white" stroke="black"/>
<rect x="194.5" y="15.5" width="14" height="19" fill="white" stroke="black"/>
<path d="M176.022 28.728C176.326 28.728 176.574 28.684 176.766 28.596C176.966 28.5 177.118 28.376 177.222 28.224C177.334 28.064 177.41 27.884 177.45 27.684C177.49 27.476 177.51 27.264 177.51 27.048V26.832H179.094V27.048C179.094 28.048 178.83 28.82 178.302 29.364C177.782 29.9 177.022 30.168 176.022 30.168C175.062 30.168 174.302 29.876 173.742 29.292C173.182 28.708 172.902 27.856 172.902 26.736V24.864C172.902 24.328 172.974 23.848 173.118 23.424C173.262 22.992 173.47 22.632 173.742 22.344C174.014 22.048 174.342 21.824 174.726 21.672C175.11 21.512 175.542 21.432 176.022 21.432C176.518 21.432 176.958 21.504 177.342 21.648C177.726 21.792 178.046 22 178.302 22.272C178.566 22.544 178.762 22.872 178.89 23.256C179.026 23.64 179.094 24.072 179.094 24.552V24.768H177.51V24.552C177.51 24.352 177.486 24.152 177.438 23.952C177.39 23.752 177.31 23.572 177.198 23.412C177.086 23.252 176.934 23.124 176.742 23.028C176.55 22.924 176.31 22.872 176.022 22.872C175.758 22.872 175.53 22.924 175.338 23.028C175.146 23.124 174.986 23.26 174.858 23.436C174.73 23.604 174.634 23.804 174.57 24.036C174.514 24.26 174.486 24.496 174.486 24.744V26.856C174.486 27.128 174.514 27.38 174.57 27.612C174.626 27.836 174.714 28.032 174.834 28.2C174.954 28.368 175.11 28.5 175.302 28.596C175.502 28.684 175.742 28.728 176.022 28.728Z" fill="black"/>
<path d="M231.354 25.3536C231.549 25.1583 231.549 24.8417 231.354 24.6464L228.172 21.4645C227.976 21.2692 227.66 21.2692 227.464 21.4645C227.269 21.6597 227.269 21.9763 227.464 22.1716L230.293 25L227.464 27.8284C227.269 28.0237 227.269 28.3403 227.464 28.5355C227.66 28.7308 227.976 28.7308 228.172 28.5355L231.354 25.3536ZM209 25.5L231 25.5V24.5L209 24.5V25.5Z" fill="black"/>
<path d="M235.857 29.208H236.073V21.6H237.657V30H234.561L233.577 22.392H233.361V30H231.777V21.6H234.873L235.857 29.208ZM244.2 24.048H245.712V30H244.2V29.136H243.984C243.72 29.824 243.152 30.168 242.28 30.168C241.984 30.168 241.708 30.12 241.452 30.024C241.196 29.928 240.972 29.78 240.78 29.58C240.588 29.38 240.436 29.132 240.324 28.836C240.22 28.532 240.168 28.176 240.168 27.768V24.048H241.68V27.456C241.68 27.88 241.78 28.212 241.98 28.452C242.18 28.684 242.48 28.8 242.88 28.8C243.336 28.8 243.668 28.656 243.876 28.368C244.092 28.072 244.2 27.672 244.2 27.168V24.048ZM248.32 28.56H250.408V23.04H248.392V21.6H251.92V28.56H253.864V30H248.32V28.56ZM256.508 28.56H258.596V23.04H256.58V21.6H260.108V28.56H262.052V30H256.508V28.56Z" fill="black"/>
</svg>
